<?xml version="1.0" standalone="no"?><!DOCTYPE svg PUBLIC "-//W3C//DTD SVG 1.1//EN" "http://www.w3.org/Graphics/SVG/1.1/DTD/svg11.dtd"><svg class="icon" height="512" viewBox="0 0 1024 1024" version="1.1" xmlns="http://www.w3.org/2000/svg"><path d="M512 681.984c64 0 118.016-34.005333 148.010667-84.010667h70.016c-34.005333 88.021333-118.016 148.010667-217.984 148.010667s-184.021333-59.989333-217.984-148.010667h70.016a171.434667 171.434667 0 0 0 148.010666 84.010667z m0 172.032c187.989333 0 342.016-153.984 342.016-342.016S700.032 169.984 512 169.984 169.984 323.968 169.984 512 323.968 854.016 512 854.016z m0-768c235.989333 0 425.984 189.994667 425.984 425.984S747.989333 937.984 512 937.984 86.016 747.989333 86.016 512 276.010667 86.016 512 86.016z m-214.016 320c0-36.010667 27.989333-64 64-64s64 27.989333 64 64-27.989333 64-64 64-64-27.989333-64-64z m300.032 0c0-36.010667 27.989333-64 64-64s64 27.989333 64 64-27.989333 64-64 64-64-27.989333-64-64z" fill="" /></svg>