<?xml version="1.0" encoding="utf-8"?>
<!-- Generator: Adobe Illustrator 19.0.0, SVG Export Plug-In . SVG Version: 6.00 Build 0)  -->
<svg version="1.1" id="Layer_1" xmlns="http://www.w3.org/2000/svg" xmlns:xlink="http://www.w3.org/1999/xlink" x="0px" y="0px"
	 viewBox="0 0 612 792" style="enable-background:new 0 0 612 792;" xml:space="preserve">
<style type="text/css">
	.st0{fill:#FFFFFF;}
</style>
<g>
	<g>
		<path class="st0" d="M243,333c42.7,0,85.3,0,128,0c0,42.7,0,85.3,0,128c-42.7,0-85.3,0-128,0C243,418.3,243,375.7,243,333z
			 M244,396.7c0,34.8,28,63.1,62.7,63.3c34.6,0.2,63.3-28.5,63.3-63.4c0-34.9-27.9-62.9-62.8-63C272,333.5,244,361.5,244,396.7z"/>
		<path d="M244,396.7c0-35.2,28-63.2,63.2-63.1c34.9,0.1,62.8,28.1,62.8,63c0,34.9-28.6,63.6-63.3,63.4
			C272,459.8,244,431.5,244,396.7z M360.1,396.5c-0.1-29.2-23.9-53-53.1-53.1c-29.4-0.1-53.3,23.9-53.2,53.4
			c0.1,29.5,24,53.2,53.6,53.1C336.5,449.8,360.2,425.7,360.1,396.5z"/>
		<path class="st0" d="M360.1,396.5c0.1,29.3-23.6,53.3-52.8,53.4c-29.6,0.1-53.5-23.6-53.6-53.1c-0.1-29.5,23.8-53.5,53.2-53.4
			C336.2,343.4,360,367.2,360.1,396.5z M307.1,426.7c6.3,0,12.7-0.1,19,0c3.5,0.1,5.1-1.2,5.2-5c0-3.7-1.5-5-5.1-4.9
			c-12.5,0.1-25,0.1-37.5,0c-3.5,0-5.2,1.1-5.2,4.9c0,3.6,1.5,5.1,5.1,5C294.8,426.6,300.9,426.7,307.1,426.7z M324.6,376.1
			c-3.8,0-6.9,3.2-6.8,7c0,3.9,3.1,6.9,7,6.9c3.8,0,7-3.3,6.9-7C331.6,379.4,328.3,376.1,324.6,376.1z M289.1,376.1
			c-3.7,0-7,3.4-6.9,7.1c0.1,3.7,3.4,6.9,7.1,6.9c3.8,0,6.9-3.2,6.8-7.1C296.1,379.2,292.9,376.1,289.1,376.1z"/>
		<path d="M307.1,426.7c-6.2,0-12.3-0.1-18.5,0c-3.6,0.1-5.1-1.4-5.1-5c0-3.8,1.7-4.9,5.2-4.9c12.5,0.1,25,0.1,37.5,0
			c3.6,0,5.1,1.2,5.1,4.9c0,3.8-1.7,5-5.2,5C319.8,426.6,313.4,426.7,307.1,426.7z"/>
		<path d="M324.6,376.1c3.7,0,7,3.2,7.1,6.9c0,3.7-3.2,7-6.9,7c-3.8,0-6.9-3-7-6.9C317.7,379.3,320.8,376.2,324.6,376.1z"/>
		<path d="M289.1,376.1c3.8,0,7,3.1,7,6.9c0,3.8-3,7-6.8,7.1c-3.7,0-7-3.2-7.1-6.9C282.1,379.5,285.4,376.2,289.1,376.1z"/>
	</g>
</g>
</svg>
