<?xml version="1.0" encoding="utf-8"?>
<!-- Generator: Adobe Illustrator 19.0.0, SVG Export Plug-In . SVG Version: 6.00 Build 0)  -->
<svg version="1.1" id="Layer_1" xmlns="http://www.w3.org/2000/svg" xmlns:xlink="http://www.w3.org/1999/xlink" x="0px" y="0px"
	 viewBox="0 0 612 792" style="enable-background:new 0 0 612 792;" xml:space="preserve">
<style type="text/css">
	.st0{fill:#FFFFFF;}
</style>
<g>
	<g>
		<path class="st0" d="M371,462c-42.7,0-85.3,0-128,0c0-42.7,0-85.3,0-128c42.7,0,85.3,0,128,0C371,376.7,371,419.3,371,462z
			 M244,397.3c0,35.1,28.1,63.6,62.9,63.7c34.5,0.1,63-28.4,63.1-63c0.1-35.2-27.9-63.3-63-63.4C272,334.6,244,362.5,244,397.3z"/>
		<path d="M244,397.3c0-34.9,28-62.8,63-62.7c35.1,0,63,28.2,63,63.4c-0.1,34.6-28.6,63.1-63.1,63C272.1,461,244,432.5,244,397.3z
			 M253.8,397.6c0,29.3,23.7,53.2,52.9,53.3c29.5,0.1,53.5-23.7,53.5-53.2c0-29.5-24-53.5-53.4-53.3
			C277.5,344.5,253.8,368.3,253.8,397.6z"/>
		<path class="st0" d="M253.8,397.6c0-29.3,23.7-53.1,53-53.2c29.4-0.1,53.4,23.9,53.4,53.3c0,29.5-24,53.3-53.5,53.2
			C277.4,450.8,253.7,426.9,253.8,397.6z M308.5,409c-10.1-0.1-20.3,6.5-23.3,15.7c-0.6,1.8,1,4.2,1.6,6.4c2-0.9,5.2-1.2,5.9-2.7
			c6.9-14.5,25.3-12.8,30.8-0.2c0.7,1.5,4.1,3.1,5.7,2.6c3-0.8,3.2-3.7,1.9-6.6C327.5,415.6,318,409.1,308.5,409z M331.7,384.1
			c0-3.7-3.3-7-7.1-6.9c-3.8,0-6.9,3.2-6.8,7c0,3.9,3.1,6.9,7,6.9C328.5,391.1,331.7,387.8,331.7,384.1z M296.1,384.2
			c0-3.8-3.1-7-6.9-7c-3.7,0-7,3.2-7.1,6.9c0,3.7,3.2,7,7,7C293,391.1,296.1,388,296.1,384.2z"/>
		<path d="M308.5,409c9.6,0.1,19,6.6,22.7,15.4c1.2,2.9,1.1,5.8-1.9,6.6c-1.6,0.4-5.1-1.1-5.7-2.6c-5.6-12.7-23.9-14.3-30.8,0.2
			c-0.7,1.5-3.9,1.8-5.9,2.7c-0.6-2.1-2.2-4.6-1.6-6.4C288.2,415.5,298.4,409,308.5,409z"/>
		<path d="M331.7,384.1c0,3.7-3.2,7-6.9,7c-3.8,0-6.9-3-7-6.9c0-3.8,3.1-7,6.8-7C328.3,377.1,331.6,380.4,331.7,384.1z"/>
		<path d="M296.1,384.2c0,3.8-3.2,6.9-7,6.9c-3.7,0-7-3.3-7-7c0-3.7,3.3-7,7.1-6.9C293,377.2,296.1,380.3,296.1,384.2z"/>
	</g>
</g>
</svg>
