<?xml version="1.0" encoding="utf-8"?>
<!-- Generator: Adobe Illustrator 19.0.0, SVG Export Plug-In . SVG Version: 6.00 Build 0)  -->
<svg version="1.1" id="Layer_1" xmlns="http://www.w3.org/2000/svg" xmlns:xlink="http://www.w3.org/1999/xlink" x="0px" y="0px"
	 viewBox="0 0 612 792" style="enable-background:new 0 0 612 792;" xml:space="preserve">
<style type="text/css">
	.st0{fill:#FFFFFF;}
</style>
<g>
	<g>
		<path class="st0" d="M243,333c42.7,0,85.3,0,128,0c0,42.7,0,85.3,0,128c-42.7,0-85.3,0-128,0C243,418.3,243,375.7,243,333z
			 M244,396.6c0,35,28.4,63.6,63.1,63.4c34.6-0.2,62.8-28.6,62.9-63.3c0-35.1-28.2-63.3-63.2-63.1C271.8,333.7,244,361.6,244,396.6z
			"/>
		<path d="M244,396.6c0-35,27.8-62.8,62.8-63c35-0.1,63.2,28,63.2,63.1c0,34.7-28.2,63.1-62.9,63.3C272.4,460.2,244,431.6,244,396.6
			z M360.1,396.8c0.1-29.5-23.9-53.5-53.3-53.4c-29.2,0.1-53,23.8-53.1,53.1c-0.1,29.3,23.6,53.2,52.8,53.4
			C336.1,450,360.1,426.2,360.1,396.8z"/>
		<path class="st0" d="M360.1,396.8c-0.1,29.4-24.1,53.2-53.6,53.1c-29.2-0.1-52.9-24.1-52.8-53.4c0.1-29.3,23.8-53.1,53.1-53.1
			C336.2,343.3,360.2,367.3,360.1,396.8z M345.7,408.3c-25.9,0-51.4,0-77,0c2.2,16.8,19,31.2,36.8,31.8
			C324.7,440.7,341.8,427.4,345.7,408.3z M331.7,382.9c-0.2-3.7-3.5-6.9-7.3-6.7c-3.8,0.1-6.8,3.4-6.6,7.2c0.1,3.8,3.3,6.8,7.2,6.7
			C328.7,389.9,331.8,386.6,331.7,382.9z M289,376.1c-3.7,0.1-7,3.5-6.9,7.1c0.1,3.7,3.4,6.9,7.2,6.8c3.8-0.1,6.8-3.3,6.8-7.1
			C296,379.1,292.8,376.1,289,376.1z"/>
		<path d="M345.7,408.3c-3.9,19.1-21,32.5-40.2,31.8c-17.9-0.6-34.6-15-36.8-31.8C294.3,408.3,319.8,408.3,345.7,408.3z"/>
		<path d="M331.7,382.9c0.2,3.7-3,7.1-6.7,7.2c-3.8,0.1-7-2.9-7.2-6.7c-0.1-3.8,2.9-7.1,6.6-7.2C328.1,376,331.5,379.2,331.7,382.9z
			"/>
		<path d="M289,376.1c3.8-0.1,7,3,7.1,6.8c0.1,3.8-3,7-6.8,7.1c-3.7,0.1-7.1-3.1-7.2-6.8C282.1,379.6,285.3,376.2,289,376.1z"/>
	</g>
</g>
</svg>
