<?xml version="1.0" encoding="utf-8"?>
<!-- Generator: Adobe Illustrator 19.0.0, SVG Export Plug-In . SVG Version: 6.00 Build 0)  -->
<svg version="1.1" id="Layer_1" xmlns="http://www.w3.org/2000/svg" xmlns:xlink="http://www.w3.org/1999/xlink" x="0px" y="0px"
	 viewBox="0 0 612 792" style="enable-background:new 0 0 612 792;" xml:space="preserve">
<style type="text/css">
	.st0{fill:#FFFFFF;}
</style>
<g>
	<g>
		<path class="st0" d="M243,333c42.7,0,85.3,0,128,0c0,42.7,0,85.3,0,128c-42.7,0-85.3,0-128,0C243,418.3,243,375.7,243,333z
			 M306.8,333.6c-35.4,0.1-62.9,28.1-62.8,63.9c0.1,34.2,28.8,62.6,63.1,62.5c34.8-0.2,63-28.7,62.9-63.8
			C369.9,361.5,341.6,333.5,306.8,333.6z"/>
		<path d="M306.8,333.6c34.8-0.1,63.1,27.9,63.2,62.7c0.1,35-28.1,63.6-62.9,63.8c-34.3,0.2-63-28.2-63.1-62.5
			C243.9,361.7,271.4,333.7,306.8,333.6z M253.8,396.5c-0.1,29.3,23.6,53.3,52.8,53.4c29.5,0.1,53.5-23.7,53.6-53.1
			c0.1-29.5-23.9-53.5-53.3-53.4C277.6,343.4,253.8,367.2,253.8,396.5z"/>
		<path class="st0" d="M253.8,396.5c0.1-29.3,23.8-53.1,53.1-53.1c29.4-0.1,53.4,23.9,53.3,53.4c-0.1,29.4-24.1,53.2-53.6,53.1
			C277.4,449.8,253.7,425.8,253.8,396.5z M306.9,436.7c10.3-0.2,19.5-3.6,27.2-10.6c2.4-2.2,4-4.8,1.4-7.7c-2.5-2.8-5.1-2-7.8,0.2
			c-13.5,11-27.9,11.1-41.2,0.1c-2.6-2.2-5.2-3.3-7.8-0.5c-2.9,3.1-1.1,5.8,1.5,8.1C287.7,433.2,296.7,436.5,306.9,436.7z
			 M317.8,382.6c-0.3,3.9,2.6,7.2,6.4,7.4c3.8,0.3,7.2-2.7,7.5-6.4c0.3-3.6-2.8-7.2-6.5-7.5C321.4,375.9,318,378.8,317.8,382.6z
			 M289.3,376.1c-3.7-0.1-7.1,3.1-7.1,6.8c-0.1,3.7,3.1,7,6.9,7.1c3.8,0.1,7-3,7.1-6.8C296.2,379.4,293.1,376.2,289.3,376.1z"/>
		<path d="M306.9,436.7c-10.2-0.3-19.2-3.6-26.8-10.4c-2.6-2.3-4.4-5-1.5-8.1c2.6-2.8,5.2-1.7,7.8,0.5c13.3,10.9,27.6,10.9,41.2-0.1
			c2.7-2.2,5.3-3.1,7.8-0.2c2.6,2.9,1.1,5.5-1.4,7.7C326.3,433.1,317.2,436.5,306.9,436.7z"/>
		<path d="M317.8,382.6c0.3-3.8,3.6-6.8,7.4-6.5c3.7,0.3,6.8,3.8,6.5,7.5c-0.3,3.8-3.7,6.7-7.5,6.4
			C320.4,389.8,317.5,386.5,317.8,382.6z"/>
		<path d="M289.3,376.1c3.8,0.1,6.9,3.3,6.8,7.1c-0.1,3.8-3.2,6.9-7.1,6.8c-3.7-0.1-7-3.4-6.9-7.1
			C282.3,379.3,285.6,376.1,289.3,376.1z"/>
	</g>
</g>
</svg>
